<?xml version="1.0" encoding="UTF-8"?>
<svg id="Capa_2" data-name="Capa 2" xmlns="http://www.w3.org/2000/svg" viewBox="0 0 221.81 316.73">
  <defs>
    <style>
      .cls-1 {
        fill: #c49a6a;
      }

      .cls-1, .cls-2, .cls-3, .cls-4, .cls-5, .cls-6, .cls-7, .cls-8 {
        stroke-width: 0px;
      }

      .cls-2 {
        fill: #cab69d;
      }

      .cls-9 {
        fill: none;
        stroke: #000;
        stroke-miterlimit: 10;
      }

      .cls-4 {
        fill: #cab69c;
      }

      .cls-5 {
        fill: #aa8e82;
      }

      .cls-6 {
        fill: #bb4e25;
      }

      .cls-7 {
        fill: #a38779;
      }

      .cls-8 {
        fill: #be4c28;
      }
    </style>
  </defs>
  <g id="Capa_1-2" data-name="Capa 1">
    <g>
      <path class="cls-7" d="m175.59,222.66h39.24s6.31.35,6.66-7.36,0-59.91,0-59.91c0,0-.16-3.91-2.43-4.89s-4.57.66-7.52,4.47-39.19,59.03-39.19,59.03c0,0-6.57,8.67,3.24,8.67Z"/>
      <path class="cls-1" d="m219.23,125.21l-23.31,35.94s-1.23,5.8-11.75,1.6-48.61-17.61-48.61-17.61c0,0-7.09-2.1-1.84-8.67S213.08,23.74,213.08,23.74c0,0,8.19-5.78,8.56,3.42.32,7.93.09,72.31.02,89.9-.01,2.89-.86,5.72-2.43,8.15Z"/>
      <path class="cls-4" d="m129.26,153.02l51.24,18.13s7.62,1.58,2.1,9.99-25.67,37.05-25.67,37.05c0,0,.18,4.73-11.91,4.47s-61.75,0-61.75,0c0,0-8.15-1.58-2.89-8.94s39.97-56.5,39.97-56.5c0,0,2.24-6.56,8.91-4.2Z"/>
      <path class="cls-1" d="m98.25,87.85l17.34,52.82s1.58,5.02-3.94,11.84-45.72,66.47-45.72,66.47c0,0-3.68,3.95-9.72,3.68s-43.88,0-43.88,0c0,0-8.41,0-2.1-10.25s78.04-126.66,78.04-126.66c0,0,6.46-8.64,9.99,2.1Z"/>
      <path class="cls-2" d="m212.55,13.73l-82.77,113.11s-4.42,5.27-9.43-1l-17.37-51.42s-2.63-6.77,5.26-12.04S184.6,3.95,184.6,3.95c0,0,8.51-7.77,17.7-1.5s5.26,3.26,5.26,3.26c0,0,7.46,4.66,4.99,8.03Z"/>
      <path class="cls-6" d="m.23,153.21v39.23s.26,6.04,4.2,6.04,12.09-14.19,12.09-14.19l45.31-74.63s2.25-6.83-2.22-7.62-16.55,11.04-16.55,11.04L3.82,145.59c-2.27,1.88-3.58,4.67-3.58,7.62Z"/>
      <path class="cls-8" d="m83.53,7.45l12.09,38.63s2.89,9.46,11.82,1.84,47.04-39.15,47.04-39.15c0,0,2.36-7.62-2.1-8.41S86.16.35,86.16.35c0,0-4.34,1.63-2.63,7.09Z"/>
      <path class="cls-7" d="m11.01,1.4h54.39s4.2-3.15,7.09,6.57,16.03,48.09,16.03,48.09c0,0,2.1,4.73-2.63,9.2s-22.07,18.39-22.07,18.39c0,0-3.68,4.47-9.46-3.15S9.69,8.5,9.69,8.5c0,0-3.94-7.09,1.31-7.09Z"/>
      <path class="cls-5" d="m10.22,26.63l37.31,61.49s4.47,4.99-1.84,10.51-37.42,30.29-37.42,30.29c0,0-7.52,2.04-8.04-5.06S.23,30.31.23,30.31c0,0,.79-8.41,9.99-3.68Z"/>
    </g>
    <g>
      <path class="cls-3" d="m3.43,285.61v-2.16l4.43-1.41c.31-.1.57-.25.78-.47s.32-.54.32-.96v-31.29c0-.4-.1-.71-.3-.92s-.47-.36-.79-.46l-4.43-1.47v-2.1h16.62c2.84,0,5.41.38,7.71,1.15,2.3.77,4.14,1.97,5.51,3.61s2.06,3.78,2.06,6.43c0,2.78-.6,5.19-1.8,7.22-1.2,2.03-2.84,3.59-4.93,4.69-2.09,1.09-4.49,1.64-7.19,1.64-.98,0-2.13-.22-3.45-.68-1.32-.45-2.41-.95-3.25-1.51v-2.13c.63.19,1.52.34,2.67.43,1.15.1,2.22.14,3.22.14,1.82,0,3.27-.33,4.36-.98,1.08-.65,1.9-1.45,2.46-2.4.56-.95.92-1.89,1.11-2.82.18-.93.27-1.67.27-2.23,0-1.61-.28-3.11-.85-4.49s-1.57-2.5-3-3.35c-1.44-.85-3.48-1.28-6.12-1.28h-3.82v32.78c0,.42.11.74.33.96.22.22.48.38.79.47l4.69,1.41v2.16H3.43Z"/>
      <path class="cls-3" d="m54.67,286.33c-2.99,0-5.61-.65-7.85-1.96-2.24-1.3-3.99-3.16-5.23-5.58-1.25-2.42-1.87-5.29-1.87-8.63,0-3.09.62-5.86,1.85-8.31,1.24-2.45,3-4.4,5.28-5.84,2.28-1.44,4.98-2.16,8.11-2.16,3.39,0,6.19.75,8.4,2.26,2.2,1.51,3.85,3.48,4.93,5.94,1.08,2.45,1.62,5.12,1.62,7.99,0,3.03-.61,5.78-1.84,8.24-1.23,2.46-2.98,4.42-5.26,5.87-2.28,1.45-4.99,2.17-8.14,2.17Zm.4-3.13c1.67,0,3.05-.38,4.14-1.15s1.96-1.77,2.6-3.02c.64-1.25,1.1-2.6,1.37-4.07.27-1.47.4-2.9.4-4.3,0-2.28-.3-4.47-.89-6.56-.59-2.09-1.55-3.8-2.88-5.12-1.32-1.32-3.09-1.98-5.29-1.98-1.65,0-3.02.38-4.11,1.14-1.09.76-1.96,1.75-2.6,2.99-.64,1.24-1.1,2.58-1.38,4.04-.28,1.46-.42,2.88-.42,4.26,0,1.55.15,3.13.45,4.75.3,1.61.79,3.1,1.48,4.46.69,1.36,1.61,2.46,2.77,3.31,1.16.84,2.61,1.27,4.36,1.27Z"/>
      <path class="cls-3" d="m96.02,254.73l-.2,3.28h-10.73v20.1c0,.9.35,1.62,1.04,2.17.69.55,1.49.94,2.4,1.19s1.68.37,2.31.37c.67,0,1.46-.12,2.36-.35.9-.23,1.54-.44,1.93-.63h.98v2.36c-.34.23-.97.58-1.87,1.04-.9.46-1.93.89-3.09,1.28-1.16.39-2.33.59-3.49.59-1.48,0-2.85-.24-4.11-.73-1.27-.49-2.28-1.19-3.05-2.1-.77-.91-1.15-2.01-1.15-3.29v-22h-5v-2.65c1.09-.17,2.04-.36,2.85-.56s1.45-.6,1.93-1.19c.48-.59.76-1.55.83-2.88l.29-4.23,4.86-.92v9.14h10.93Z"/>
      <path class="cls-3" d="m120.57,254.73l-.2,3.28h-10.73v20.1c0,.9.35,1.62,1.04,2.17.69.55,1.49.94,2.4,1.19s1.68.37,2.31.37c.67,0,1.46-.12,2.36-.35.9-.23,1.54-.44,1.93-.63h.98v2.36c-.34.23-.97.58-1.87,1.04-.9.46-1.93.89-3.09,1.28-1.16.39-2.33.59-3.49.59-1.48,0-2.85-.24-4.11-.73-1.27-.49-2.28-1.19-3.05-2.1-.77-.91-1.15-2.01-1.15-3.29v-22h-5v-2.65c1.09-.17,2.04-.36,2.85-.56s1.45-.6,1.93-1.19c.48-.59.76-1.55.83-2.88l.29-4.23,4.86-.92v9.14h10.93Z"/>
      <path class="cls-3" d="m139.55,286.27c-2.78,0-5.29-.61-7.53-1.83-2.24-1.22-4.02-3.01-5.32-5.39-1.3-2.38-1.96-5.29-1.96-8.74,0-3.09.63-5.87,1.88-8.35,1.25-2.48,3-4.45,5.23-5.91s4.83-2.19,7.78-2.19c2.72,0,5.05.57,6.97,1.7,1.93,1.13,3.4,2.63,4.43,4.49s1.54,3.88,1.54,6.07c0,.25,0,.57-.03.96-.02.39-.04.78-.07,1.17-.03.38-.08.71-.16.98h-22.03l.17-2.99h15.99c0-1.88-.24-3.51-.71-4.89-.47-1.38-1.23-2.45-2.27-3.21-1.04-.76-2.44-1.14-4.18-1.14s-3.09.36-4.2,1.08c-1.11.72-1.99,1.67-2.63,2.86-.64,1.19-1.1,2.49-1.37,3.9-.27,1.41-.4,2.79-.4,4.16,0,2.44.35,4.63,1.05,6.58.7,1.96,1.84,3.5,3.44,4.64,1.59,1.14,3.73,1.71,6.41,1.71,1.48,0,2.86-.22,4.14-.65,1.28-.43,2.43-.94,3.45-1.54,1.02-.59,1.85-1.14,2.5-1.64h.8v3.31c-1.44,1.17-3.3,2.27-5.58,3.31s-4.74,1.55-7.36,1.55Z"/>
      <path class="cls-3" d="m158.42,285.61v-2.1l3.54-1.15c.33-.1.6-.25.82-.47s.33-.53.33-.93v-19.96c0-.5-.14-.89-.42-1.16-.28-.28-.58-.48-.91-.62l-3.57-1.5v-2.04l10.18-1.58v6.7h.29c1.17-1.67,2.26-3.01,3.28-4.03,1.02-1.02,2.03-1.75,3.03-2.21,1.01-.46,2.05-.69,3.12-.69.94,0,1.88.11,2.82.32s1.79.65,2.56,1.32v7.16h-3.51l-.83-2.21c-.19-.48-.61-.86-1.25-1.15-.64-.29-1.28-.43-1.91-.43-1.09,0-2.07.25-2.92.73-.85.49-1.62,1.1-2.3,1.83s-1.33,1.46-1.94,2.19v17.34c0,.75.38,1.22,1.15,1.41l4.46,1.15v2.1h-16.02Z"/>
      <path class="cls-3" d="m188.55,299.01l.2-5.92h1.35c.25.13.58.28.98.43.4.15.83.3,1.28.43.45.13.87.24,1.25.32.38.08.68.12.89.12.88,0,1.61-.07,2.2-.2.58-.13,1.12-.38,1.6-.75.5-.38.95-.91,1.37-1.58.41-.67.85-1.57,1.32-2.7.47-1.13,1.03-2.58,1.68-4.34l-2.01-3.39-9.81-22.31c-.15-.36-.36-.64-.62-.82s-.56-.35-.91-.5l-2.24-1.04v-2.07h13.69v2.07l-4.26,1.41,7.16,16.13,1.38,3.59h.49l7.13-18.86-3.91-2.27v-2.07h11.53v2.07l-2.56,1.73c-.27.19-.56.39-.86.59s-.52.46-.63.79l-11.76,30.8c-.94,2.47-1.99,4.37-3.15,5.69-1.16,1.32-2.4,2.23-3.72,2.73-1.32.5-2.72.75-4.2.75-.36,0-.86-.04-1.5-.12-.63-.08-1.26-.18-1.9-.3s-1.12-.25-1.47-.39Z"/>
    </g>
    <g>
      <path class="cls-3" d="m77.9,316.4v-.62l1.58-.37c.15-.04.28-.12.38-.24s.16-.27.16-.44v-13.3c0-.18-.05-.34-.16-.46-.1-.12-.23-.2-.38-.23l-1.58-.36v-.62h6.48v.62l-1.57.36c-.15.03-.28.11-.4.24-.11.13-.17.28-.17.46v5.8h8.12v-5.8c0-.18-.05-.34-.16-.46-.1-.12-.24-.2-.4-.23l-1.57-.36v-.62h6.47v.62l-1.57.36c-.16.03-.29.11-.4.24s-.16.28-.16.46v13.3c0,.18.05.33.16.45.11.12.24.19.39.23l1.57.37v.62h-6.47v-.62l1.57-.37c.16-.04.29-.12.4-.24s.16-.27.16-.44v-6.47h-8.12v6.47c0,.18.05.33.16.45.1.12.24.19.41.23l1.57.37v.62h-6.48Z"/>
      <path class="cls-3" d="m101.77,316.73c-1.14,0-2.14-.26-2.98-.77-.84-.51-1.49-1.24-1.95-2.17-.46-.94-.69-2.03-.69-3.29,0-1.18.23-2.24.69-3.19.46-.95,1.12-1.7,1.97-2.26.86-.56,1.88-.84,3.07-.84,1.28,0,2.33.29,3.16.88.83.59,1.44,1.36,1.85,2.3.4.95.61,1.97.61,3.05,0,1.15-.23,2.2-.68,3.16s-1.11,1.71-1.97,2.27c-.86.56-1.88.85-3.08.85Zm.17-.89c.65,0,1.18-.16,1.61-.49.42-.32.76-.75,1-1.27.24-.52.42-1.08.52-1.68s.15-1.17.15-1.72c0-.9-.11-1.78-.34-2.64-.23-.86-.6-1.56-1.11-2.12-.51-.56-1.2-.84-2.05-.84-.64,0-1.17.16-1.59.49s-.75.74-1,1.26c-.25.52-.42,1.07-.52,1.66-.1.59-.15,1.16-.15,1.72,0,.61.05,1.24.16,1.89.11.65.3,1.26.56,1.83.27.57.62,1.03,1.07,1.38.44.35,1.01.53,1.7.53Z"/>
      <path class="cls-3" d="m114.07,316.64c-.7,0-1.34-.14-1.91-.43-.57-.28-1.02-.73-1.35-1.34-.33-.61-.5-1.41-.5-2.39v-5.68c0-.21-.05-.38-.16-.51-.11-.13-.29-.25-.53-.34l-1.16-.42v-.42l3.95-.8v7.37c0,.72.06,1.34.17,1.87.12.53.36.93.73,1.22.37.28.92.43,1.67.43s1.31-.13,1.8-.38c.49-.25.85-.53,1.08-.85v-7.16c0-.21-.05-.36-.16-.47-.1-.1-.28-.2-.54-.3l-1.18-.42v-.42l3.96-.89v9.82c0,.2.05.37.16.5.1.14.29.25.55.34l1.15.38v.42l-3.65.88h-.22v-2.06h-.02c-.48.68-1.01,1.19-1.58,1.54-.57.35-1.33.52-2.26.52Z"/>
      <path class="cls-3" d="m123.13,315.92v-3.16h.76l.44,1.39c.06.19.17.35.34.49s.33.24.49.32c.29.15.66.3,1.13.46.46.15.92.23,1.36.23.41,0,.8-.06,1.16-.19s.67-.34.91-.64c.24-.3.35-.69.35-1.19,0-.64-.21-1.09-.63-1.36s-.93-.48-1.53-.64c-.41-.12-.81-.23-1.21-.34-.4-.11-.76-.21-1.1-.32-.69-.22-1.24-.62-1.67-1.18-.42-.56-.64-1.23-.64-2.01,0-.7.21-1.32.62-1.86s.96-.96,1.63-1.26c.68-.3,1.41-.46,2.2-.46.69,0,1.28.05,1.78.14.5.1,1.03.22,1.6.36l.17,3.2h-.79l-.5-1.4c-.06-.17-.16-.32-.3-.44-.14-.13-.28-.23-.44-.31-.27-.14-.58-.25-.92-.35-.34-.1-.69-.15-1.06-.15-.54,0-1.04.14-1.49.41-.45.28-.68.75-.68,1.41s.18,1.14.55,1.42c.36.28.78.5,1.25.66.35.1.72.21,1.12.32.39.11.7.2.92.28.84.25,1.53.6,2.08,1.06.55.46.82,1.13.82,2.01s-.22,1.62-.66,2.2c-.44.58-1.02,1-1.75,1.28-.72.28-1.52.42-2.38.42s-1.56-.09-2.18-.27c-.62-.18-1.21-.36-1.76-.53Z"/>
      <path class="cls-3" d="m138.71,316.7c-1.06,0-2-.24-2.82-.71-.82-.48-1.45-1.17-1.91-2.09s-.69-2.04-.69-3.37c0-1.12.22-2.16.67-3.11.44-.96,1.08-1.73,1.91-2.32.83-.59,1.81-.88,2.96-.88.98,0,1.82.23,2.5.68.68.45,1.2,1.03,1.56,1.74.36.71.53,1.45.53,2.24,0,.1,0,.2,0,.32s-.01.23-.02.34-.03.21-.05.3h-8.05l.06-.86h5.87c0-.7-.08-1.35-.25-1.93s-.43-1.05-.8-1.41c-.37-.36-.86-.53-1.48-.53s-1.14.16-1.55.47c-.41.31-.74.71-.99,1.21-.25.49-.42,1.02-.52,1.58-.1.56-.15,1.09-.15,1.6,0,.9.12,1.75.36,2.56.24.81.65,1.47,1.24,1.98.59.51,1.4.77,2.43.77.6,0,1.14-.08,1.61-.25.48-.16.89-.36,1.25-.59.36-.23.64-.43.86-.62h.17v.95c-.5.47-1.16.92-1.98,1.34-.82.42-1.72.63-2.7.63Z"/>
    </g>
    <line class="cls-9" x1=".23" y1="309.9" x2="65.4" y2="309.9"/>
    <line class="cls-9" x1="152.64" y1="309.9" x2="221.81" y2="309.9"/>
  </g>
</svg>